<svg version="1.1" xmlns="http://www.w3.org/2000/svg" xmlns:xlink="http://www.w3.org/1999/xlink" viewBox="0 0 226 226"><g fill="none" fill-rule="nonzero" stroke="none" stroke-width="1" stroke-linecap="none" stroke-linejoin="none" stroke-miterlimit="10" stroke-dasharray="" stroke-dashoffset="0" font-family="none" font-weight="none" font-size="none" text-anchor="none" style="mix-blend-mode: normal"><path d="M0,226v-226h226v226z" fill="none" stroke="none" stroke-linecap="butt" stroke-linejoin="miter"></path><g><circle cx="50" cy="50" transform="scale(2.26,2.26)" r="36.5" fill="#fde9f1" stroke="none" stroke-linecap="butt" stroke-linejoin="miter"></circle><path d="M65.71176,192.2921c1.94812,-24.6679 -5.35168,-42.55806 -21.36152,-76.21398c-8.09532,-17.0178 10.69658,-24.63174 18.98174,-14.89566c15.5036,18.21334 38.872,22.7582 41.6857,47.64306" fill="none" stroke="#231f20" stroke-linecap="round" stroke-linejoin="round"></path><path d="M103.77016,93.14138c0,0 -3.67928,-32.45812 -4.29852,-42.44958c-1.14356,-18.43934 -23.78198,-18.4529 -24.77412,-2.00688c-0.8136,13.5035 1.75602,64.0032 1.75602,64.0032" fill="none" stroke="#231f20" stroke-linecap="round" stroke-linejoin="round"></path><path d="M131.0348,92.70746c0,0 -1.08254,-33.97232 -1.5142,-44.14232c-0.78648,-18.45968 -23.9334,-18.17944 -24.41704,-1.71082c-0.46782,15.99176 -1.46222,46.43622 -1.46222,46.43622" fill="none" stroke="#231f20" stroke-linecap="round" stroke-linejoin="round"></path><path d="M159.38198,190.99486c3.46232,-44.79094 0.75258,-80.52154 0.86558,-132.90608c0.04068,-18.4755 -22.81244,-19.63714 -24.63852,-3.2657c-1.50064,13.44474 -4.35728,37.45272 -4.35728,37.45272" fill="none" stroke="#231f20" stroke-linecap="round" stroke-linejoin="round"></path><path d="M163.5901,33.22652c10.54064,4.91324 15.1533,15.43354 15.0855,28.13022" fill="none" stroke="#231f20" stroke-linecap="round" stroke-linejoin="round"></path><path d="M173.00526,26.85106c8.814,3.71318 15.60078,14.96572 15.75898,24.68598" fill="none" stroke="#231f20" stroke-linecap="round" stroke-linejoin="round"></path></g></g></svg>