<svg version="1.1" xmlns="http://www.w3.org/2000/svg" xmlns:xlink="http://www.w3.org/1999/xlink" viewBox="0 0 226 226"><g fill="none" fill-rule="nonzero" stroke="none" stroke-width="1" stroke-linecap="none" stroke-linejoin="none" stroke-miterlimit="10" stroke-dasharray="" stroke-dashoffset="0" font-family="none" font-weight="none" font-size="none" text-anchor="none" style="mix-blend-mode: normal"><path d="M0,226v-226h226v226z" fill="none" stroke="none" stroke-linecap="butt" stroke-linejoin="miter"></path><g><circle cx="50" cy="50" transform="scale(2.26,2.26)" r="36.5" fill="#e9f6ff" stroke="none" stroke-linecap="butt" stroke-linejoin="miter"></circle><path d="M58.11816,107.56018v25.97418c0,7.4919 7.5032,15.95108 16.7579,15.95108v0c9.2547,0 16.7579,-8.46144 16.7579,-15.95108v-30.9055" fill="none" stroke="#231f20" stroke-linecap="round" stroke-linejoin="round"></path><path d="M91.63622,103.05148v33.22426c0,8.77558 7.5032,15.89006 16.7579,15.89006v0c9.2547,0 16.7579,-7.11448 16.7579,-15.89006v-35.02322" fill="none" stroke="#231f20" stroke-linecap="round" stroke-linejoin="round"></path><path d="M125.15202,103.63908c0,0 0,17.73196 0,33.7983c0,23.49948 33.5158,23.49948 33.5158,0c0,-9.92366 0,-26.63636 0,-40.96024c0.678,-25.70976 -10.42086,-39.33756 -24.91876,-37.81884c-4.81154,0.50398 -9.62082,-0.36386 -13.81764,-2.77302c-8.98576,-5.16184 -18.34668,-3.91884 -25.2442,1.77636c-3.75838,3.10298 -8.56766,4.43638 -13.43796,4.26688c-23.99442,-0.83394 -39.17032,30.48062 -22.8486,65.5852" fill="none" stroke="#231f20" stroke-linecap="round" stroke-linejoin="round"></path><path d="M158.67234,96.47714c0,0 14.8482,23.92662 11.93732,50.13584c-2.38656,21.48582 -32.431,28.01948 -42.9739,26.2612c-14.32388,-2.38656 -16.7127,-16.7127 -11.93732,-21.48582" fill="none" stroke="#231f20" stroke-linecap="round" stroke-linejoin="round"></path></g></g></svg>