<svg version="1.1" xmlns="http://www.w3.org/2000/svg" xmlns:xlink="http://www.w3.org/1999/xlink" viewBox="0 0 226 226"><g fill="none" fill-rule="nonzero" stroke="none" stroke-width="1" stroke-linecap="none" stroke-linejoin="none" stroke-miterlimit="10" stroke-dasharray="" stroke-dashoffset="0" font-family="none" font-weight="none" font-size="none" text-anchor="none" style="mix-blend-mode: normal"><path d="M0,226v-226h226v226z" fill="none" stroke="none" stroke-linecap="butt" stroke-linejoin="miter"></path><g><circle cx="50" cy="50" transform="scale(2.26,2.26)" r="36.5" fill="#fff5cf" stroke="none" stroke-linecap="butt" stroke-linejoin="miter"></circle><path d="M23.65768,76.93718c0,0 58.48202,-4.72566 71.5742,-5.1189c13.09218,-0.39098 28.7698,7.85576 36.40408,25.90186c7.63428,18.0461 -11.78138,24.4419 -19.6733,13.74984c-5.93928,-8.04786 -7.80378,-8.36878 -7.80378,-8.36878c0,0 -6.65796,23.60344 -30.8377,20.54792" fill="none" stroke="#231f20" stroke-linecap="round" stroke-linejoin="round"></path><path d="M125.0458,134.5265c15.10358,8.60156 14.00522,28.05112 0.14238,32.66152c-10.4638,3.4804 -19.63036,-2.0453 -23.03844,-4.9946c-10.75082,-9.30894 -6.4862,-21.7412 6.27376,-22.36948c8.59704,-0.42488 14.35552,5.54152 14.35552,5.54152" fill="none" stroke="#231f20" stroke-linecap="round" stroke-linejoin="round"></path><path d="M124.49436,134.41124c0,0 26.03068,3.6273 35.80744,5.75396c18.7693,4.0793 24.42156,-19.56934 8.0343,-24.55942c-13.45604,-4.09738 -35.07068,-6.16528 -35.07068,-6.16528" fill="none" stroke="#231f20" stroke-linecap="round" stroke-linejoin="round"></path><path d="M133.4078,104.95666c0.14012,1.07124 24.40348,-4.51096 35.0413,-9.17786c17.58958,-7.7179 9.0061,-30.64108 -6.90656,-24.30404c-12.5317,4.99008 -27.48612,8.89084 -41.12748,10.39374" fill="none" stroke="#231f20" stroke-linecap="round" stroke-linejoin="round"></path><path d="M97.26362,158.24294c-18.91168,-0.33674 -30.3292,3.5143 -68.98876,6.6896" fill="none" stroke="#231f20" stroke-linecap="round" stroke-linejoin="round"></path><path d="M152.9455,60.33296c9.44454,-6.78678 20.87562,-5.65678 31.91346,0.61698" fill="none" stroke="#231f20" stroke-linecap="round" stroke-linejoin="round"></path><path d="M151.9963,49.00132c7.55292,-5.86696 20.68578,-6.27602 29.23988,-1.65658" fill="none" stroke="#231f20" stroke-linecap="round" stroke-linejoin="round"></path></g></g></svg>